<svg xmlns="http://www.w3.org/2000/svg" version="1.1" xmlns:xlink="http://www.w3.org/1999/xlink" xmlns:svgjs="http://svgjs.dev/svgjs" width="2000" height="1500" viewBox="0 0 2000 1500"><rect width="2000" height="1500" fill="#121212"></rect><g transform="matrix(0.75,0,0,0.75,249.090909090909,278.98548387096776)"><svg viewBox="0 0 396 248" data-background-color="#121212" preserveAspectRatio="xMidYMid meet" height="1252" width="2000" xmlns="http://www.w3.org/2000/svg" xmlns:xlink="http://www.w3.org/1999/xlink"><g id="tight-bounds" transform="matrix(1,0,0,1,0.2400000000000091,0.4000000000000057)"><svg viewBox="0 0 395.52 247.2" height="247.2" width="395.52"><g><svg></svg></g><g><svg viewBox="0 0 395.52 247.2" height="247.2" width="395.52"><g transform="matrix(1,0,0,1,75.54432,49.9954347467167)"><svg viewBox="0 0 244.43135999999998 147.2091305065666" height="147.2091305065666" width="244.43135999999998"><g><svg viewBox="0 0 244.43135999999998 147.2091305065666" height="147.2091305065666" width="244.43135999999998"><g><svg viewBox="0 0 244.43135999999998 147.2091305065666" height="147.2091305065666" width="244.43135999999998"><g><svg viewBox="0 0 244.43135999999998 147.2091305065666" height="147.2091305065666" width="244.43135999999998"><g id="textblocktransform"><svg viewBox="0 0 244.43135999999998 147.2091305065666" height="147.2091305065666" width="244.43135999999998" id="textblock"><g><svg viewBox="0 0 244.43135999999998 147.2091305065666" height="147.2091305065666" width="244.43135999999998"><g transform="matrix(1,0,0,1,0,0)"><svg width="244.43135999999998" viewBox="2.15 -21.25 37.01 22.29" height="147.2091305065666" data-palette-color="#bb86fc"><path d="M8.72 0.42L8.72 0.42Q7.12 0.42 5.3-0.19 3.47-0.8 2.15-2.22L2.15-2.22 3.19-6.32Q4.17-4.69 5.69-3.73 7.22-2.78 8.96-2.78L8.96-2.78Q10.63-2.78 11.46-3.59 12.29-4.41 12.29-5.59L12.29-5.59Q12.29-6.94 11.41-7.57 10.52-8.19 9.83-8.44L9.83-8.44 7.01-9.51Q6.25-9.83 5.17-10.43 4.1-11.04 3.3-12.19 2.5-13.33 2.5-15.17L2.5-15.17Q2.5-16.84 3.3-18.23 4.1-19.62 5.56-20.43 7.01-21.25 8.99-21.25L8.99-21.25Q10.56-21.25 12.26-20.69 13.96-20.14 15.14-18.82L15.14-18.82 14.1-14.72Q13.26-16.25 11.84-17.15 10.42-18.06 8.89-18.06L8.89-18.06Q7.47-18.06 6.65-17.26 5.83-16.46 5.83-15.42L5.83-15.42Q5.83-14.58 6.39-13.92 6.94-13.26 8.06-12.85L8.06-12.85 10.87-11.77Q11.63-11.49 12.76-10.87 13.89-10.24 14.76-9.06 15.63-7.88 15.63-5.87L15.63-5.87Q15.63-3.06 13.66-1.32 11.7 0.42 8.72 0.42ZM39.16-20.83L28.64 1.04 18.12-20.83 22.39-20.83 26.63-11.81Q27.22-10.59 27.74-9.41 28.26-8.23 28.75-6.53L28.75-6.53Q29.27-8.23 29.81-9.43 30.34-10.63 30.9-11.81L30.9-11.81 35.17-20.83 39.16-20.83Z" opacity="1" transform="matrix(1,0,0,1,0,0)" fill="#bb86fc" class="wordmark-text-0" data-fill-palette-color="primary" id="text-0"></path></svg></g></svg></g></svg></g></svg></g></svg></g></svg></g></svg></g><path d="M255.663 43.995L255.663 1.002 10.467 1.002 10.467 246.198 255.663 246.198 255.663 203.205 242.387 203.205 242.387 232.922 23.742 232.922 23.742 14.278 242.387 14.278 242.387 43.995Z" fill="#bb86fc" stroke="transparent" data-fill-palette-color="tertiary"></path></svg></g><defs></defs></svg><rect width="395.52" height="247.2" fill="none" stroke="none" visibility="hidden"></rect></g></svg></g></svg>